<svg width="30" height="31" viewBox="0 0 30 31" fill="none" xmlns="http://www.w3.org/2000/svg">
<circle cx="14.6091" cy="7.62185" r="7.12185" fill="#E4E4E4" stroke="#B9B9B9"/>
<mask id="path-2-inside-1" fill="white">
<path fill-rule="evenodd" clip-rule="evenodd" d="M29.1426 24.9416C25.1949 28.553 19.8983 30.7003 14.1272 30.5526C8.7146 30.4141 3.82202 28.281 0.134855 24.8745C2.17245 18.6331 8.11826 14.1971 15.0177 14.3737C21.6679 14.5438 27.2142 18.9485 29.1426 24.9416Z"/>
</mask>
<path fill-rule="evenodd" clip-rule="evenodd" d="M29.1426 24.9416C25.1949 28.553 19.8983 30.7003 14.1272 30.5526C8.7146 30.4141 3.82202 28.281 0.134855 24.8745C2.17245 18.6331 8.11826 14.1971 15.0177 14.3737C21.6679 14.5438 27.2142 18.9485 29.1426 24.9416Z" fill="#E4E4E4"/>
<path d="M29.1426 24.9416L29.8176 25.6795L30.2911 25.2463L30.0946 24.6353L29.1426 24.9416ZM0.134855 24.8745L-0.815768 24.5641L-1.0148 25.1738L-0.543741 25.609L0.134855 24.8745ZM28.4677 24.2038C24.7031 27.6476 19.655 29.6937 14.1528 29.5529L14.1016 31.5523C20.1415 31.7068 25.6867 29.4584 29.8176 25.6795L28.4677 24.2038ZM14.1528 29.5529C8.99197 29.4209 4.32918 27.3881 0.813451 24.14L-0.543741 25.609C3.31487 29.1739 8.43722 31.4074 14.1016 31.5523L14.1528 29.5529ZM1.08548 25.1848C2.98964 19.3522 8.54677 15.2084 14.9921 15.3733L15.0432 13.374C7.68975 13.1859 1.35526 17.9141 -0.815768 24.5641L1.08548 25.1848ZM14.9921 15.3733C21.2045 15.5323 26.3884 19.6466 28.1907 25.2479L30.0946 24.6353C28.0401 18.2503 22.1313 13.5553 15.0432 13.374L14.9921 15.3733Z" fill="#B9B9B9" mask="url(#path-2-inside-1)"/>
</svg>
