<svg width="25" height="25" viewBox="0 0 25 25" fill="none" xmlns="http://www.w3.org/2000/svg">
<g opacity="0.8">
<path fill-rule="evenodd" clip-rule="evenodd" d="M23.9587 17.7083C23.9587 18.3333 23.542 18.75 22.917 18.75H2.08366C1.45866 18.75 1.04199 18.3333 1.04199 17.7083C1.04199 17.0833 1.45866 16.6667 2.08366 16.6667C3.22949 16.6667 4.16699 15.7292 4.16699 14.5833V9.37499C4.16699 4.79166 7.91699 1.04166 12.5003 1.04166C17.0837 1.04166 20.8337 4.79166 20.8337 9.37499V14.5833C20.8337 15.7292 21.7712 16.6667 22.917 16.6667C23.542 16.6667 23.9587 17.0833 23.9587 17.7083ZM15.2087 22.3958C14.5837 23.4375 13.542 23.9583 12.5003 23.9583C11.9795 23.9583 11.4587 23.8542 10.9378 23.5416C10.417 23.2291 10.1045 22.9166 9.79199 22.3958C9.47949 21.875 9.68782 21.25 10.2087 20.9375C10.7295 20.625 11.3545 20.8333 11.667 21.3541C11.6985 21.3857 11.7301 21.4268 11.7645 21.4716C11.8438 21.5749 11.9384 21.6982 12.0837 21.7708C12.6045 22.0833 13.2295 21.875 13.542 21.3541C13.8545 20.8333 14.4795 20.7291 15.0003 20.9375C15.5212 21.1458 15.5212 21.875 15.2087 22.3958ZM18.7503 14.5833C18.7503 15.3125 18.9587 16.0417 19.2712 16.6667H5.72951C6.04201 16.0417 6.25034 15.3125 6.25034 14.5833V9.375C6.25034 5.9375 9.06284 3.125 12.5003 3.125C15.9378 3.125 18.7503 5.9375 18.7503 9.375V14.5833Z" fill="black"/>
<mask id="mask0" mask-type="alpha" maskUnits="userSpaceOnUse" x="1" y="1" width="23" height="23">
<path fill-rule="evenodd" clip-rule="evenodd" d="M23.9587 17.7083C23.9587 18.3333 23.542 18.75 22.917 18.75H2.08366C1.45866 18.75 1.04199 18.3333 1.04199 17.7083C1.04199 17.0833 1.45866 16.6667 2.08366 16.6667C3.22949 16.6667 4.16699 15.7292 4.16699 14.5833V9.37499C4.16699 4.79166 7.91699 1.04166 12.5003 1.04166C17.0837 1.04166 20.8337 4.79166 20.8337 9.37499V14.5833C20.8337 15.7292 21.7712 16.6667 22.917 16.6667C23.542 16.6667 23.9587 17.0833 23.9587 17.7083ZM15.2087 22.3958C14.5837 23.4375 13.542 23.9583 12.5003 23.9583C11.9795 23.9583 11.4587 23.8542 10.9378 23.5416C10.417 23.2291 10.1045 22.9166 9.79199 22.3958C9.47949 21.875 9.68782 21.25 10.2087 20.9375C10.7295 20.625 11.3545 20.8333 11.667 21.3541C11.6985 21.3857 11.7301 21.4268 11.7645 21.4716C11.8438 21.5749 11.9384 21.6982 12.0837 21.7708C12.6045 22.0833 13.2295 21.875 13.542 21.3541C13.8545 20.8333 14.4795 20.7291 15.0003 20.9375C15.5212 21.1458 15.5212 21.875 15.2087 22.3958ZM18.7503 14.5833C18.7503 15.3125 18.9587 16.0417 19.2712 16.6667H5.72951C6.04201 16.0417 6.25034 15.3125 6.25034 14.5833V9.375C6.25034 5.9375 9.06284 3.125 12.5003 3.125C15.9378 3.125 18.7503 5.9375 18.7503 9.375V14.5833Z" fill="white"/>
</mask>
<g mask="url(#mask0)">
</g>
</g>
</svg>
