<svg width="22" height="20" viewBox="0 0 22 20" fill="none" xmlns="http://www.w3.org/2000/svg">
<g opacity="0.2">
<path d="M22 17.1004C22 18.2899 21.0149 19.2543 19.8 19.2543H2.2C0.98505 19.2543 0 18.2899 0 17.1004V7.40812C0 6.21866 0.98505 5.25427 2.2 5.25427H19.8C21.0149 5.25427 22 6.21866 22 7.40812V17.1004Z" fill="#231F20"/>
</g>
<path fill-rule="evenodd" clip-rule="evenodd" d="M13.8 2.39713V13.1114H7.2V2.39713H13.8ZM13.8 0.254272H7.2C5.98505 0.254272 5 1.21374 5 2.39713V13.1114C5 14.2948 5.98505 15.2543 7.2 15.2543H13.8C15.0149 15.2543 16 14.2948 16 13.1114V2.39713C16 1.21374 15.0149 0.254272 13.8 0.254272Z" fill="#4B4B4B"/>
<path fill-rule="evenodd" clip-rule="evenodd" d="M0 8.25427V15.9013C0 17.2007 0.98505 18.2543 2.2 18.2543H19.8C21.0149 18.2543 22 17.2007 22 15.9013V8.25427H0Z" fill="#F96E6F"/>
<path fill-rule="evenodd" clip-rule="evenodd" d="M13.5 8.79973V10.7088H8.5V8.79973H13.5ZM13.5 6.25427H8.5C7.11937 6.25427 6 7.394 6 8.79973V10.7088C6 12.1145 7.11937 13.2543 8.5 13.2543H13.5C14.8806 13.2543 16 12.1145 16 10.7088V8.79973C16 7.394 14.8806 6.25427 13.5 6.25427Z" fill="white"/>
<g opacity="0.2">
<path d="M22 8.47649C22 7.24927 21.0149 6.25427 19.8 6.25427H2.2C0.98505 6.25427 0 7.24927 0 8.47649V11.2543H22V8.47649Z" fill="#231F20"/>
</g>
<path fill-rule="evenodd" clip-rule="evenodd" d="M22 6.47649C22 5.24927 21.0149 4.25427 19.8 4.25427H2.2C0.98505 4.25427 0 5.24927 0 6.47649V9.25427H22V6.47649Z" fill="#F96E6F"/>
</svg>
