<svg width="23" height="23" viewBox="0 0 23 23" fill="none" xmlns="http://www.w3.org/2000/svg">
<path d="M22.4102 18.6599L4.38511 0.634791C3.59898 -0.151335 2.32448 -0.151335 1.53958 0.634791L0.589595 1.5833C-0.196532 2.36967 -0.196532 3.64418 0.589595 4.42908L18.6147 22.4542C19.4011 23.2403 20.6756 23.2403 21.4605 22.4542L22.409 21.5057C23.1966 20.7208 23.1966 19.4461 22.4102 18.6599Z" fill="#F44336"/>
<path d="M18.6147 0.635431L0.589595 18.6606C-0.196532 19.4467 -0.196532 20.7215 0.589595 21.5063L1.5381 22.4549C2.32448 23.241 3.59898 23.241 4.38388 22.4549L22.4102 4.43095C23.1966 3.64482 23.1966 2.37031 22.4102 1.58542L21.4617 0.636905C20.6756 -0.150695 19.4011 -0.150695 18.6147 0.635431Z" fill="#F44336"/>
</svg>
