<svg width="25" height="25" viewBox="0 0 25 25" fill="none" xmlns="http://www.w3.org/2000/svg">
<g opacity="0.8">
<path fill-rule="evenodd" clip-rule="evenodd" d="M21.6667 7.76042C21.6927 7.8125 21.7188 7.86459 21.7708 7.91667C21.875 8.02084 21.875 8.22917 21.875 8.33334V20.8333C21.875 22.6042 20.5208 23.9583 18.75 23.9583H6.25C4.47917 23.9583 3.125 22.6042 3.125 20.8333V4.16667C3.125 2.39584 4.47917 1.04167 6.25 1.04167H14.5833C14.6875 1.04167 14.8958 1.04167 15 1.14584C15.1042 1.14584 15.2083 1.25001 15.3125 1.35417L21.5625 7.60417C21.6146 7.65625 21.6406 7.70834 21.6667 7.76042ZM18.3333 7.2917L15.625 4.58336V7.2917H18.3333ZM18.75 21.875H6.24997C5.62497 21.875 5.2083 21.4583 5.2083 20.8333V4.16667C5.2083 3.54167 5.62497 3.12501 6.24997 3.12501H13.5416V8.33334C13.5416 8.95834 13.9583 9.375 14.5833 9.375H19.7916V20.8333C19.7916 21.4583 19.375 21.875 18.75 21.875ZM16.6667 14.5833C17.2917 14.5833 17.7084 14.1667 17.7084 13.5417C17.7084 12.9167 17.2917 12.5 16.6667 12.5H8.33336C7.70836 12.5 7.2917 12.9167 7.2917 13.5417C7.2917 14.1667 7.70836 14.5833 8.33336 14.5833H16.6667ZM17.7084 17.7083C17.7084 18.3333 17.2917 18.75 16.6667 18.75H8.33336C7.70836 18.75 7.2917 18.3333 7.2917 17.7083C7.2917 17.0833 7.70836 16.6667 8.33336 16.6667H16.6667C17.2917 16.6667 17.7084 17.0833 17.7084 17.7083ZM8.33336 8.33334C7.70836 8.33334 7.2917 8.75 7.2917 9.375C7.2917 10 7.70836 10.4167 8.33336 10.4167H10.4167C11.0417 10.4167 11.4584 10 11.4584 9.375C11.4584 8.75 11.0417 8.33334 10.4167 8.33334H8.33336Z" fill="black"/>
</g>
</svg>
