<svg width="22" height="15" viewBox="0 0 22 15" fill="none" xmlns="http://www.w3.org/2000/svg">
<mask id="path-1-inside-1" fill="white">
<path fill-rule="evenodd" clip-rule="evenodd" d="M0 7.5C1.75139 3.09116 5.83188 0 10.5862 0C15.3406 0 19.4211 3.09117 21.1724 7.5C19.4211 11.9088 15.3406 15 10.5862 15C5.83188 15 1.75139 11.9088 0 7.5Z"/>
</mask>
<path d="M0 7.5L-0.929357 7.13082L-1.07601 7.5L-0.929357 7.86918L0 7.5ZM21.1724 7.5L22.1018 7.86919L22.2485 7.5L22.1018 7.13082L21.1724 7.5ZM0.929357 7.86918C2.54714 3.79668 6.28752 1 10.5862 1V-1C5.37625 -1 0.955643 2.38564 -0.929357 7.13082L0.929357 7.86918ZM10.5862 1C14.8849 1 18.6253 3.79669 20.2431 7.86919L22.1018 7.13082C20.2168 2.38565 15.7962 -1 10.5862 -1V1ZM20.2431 7.13082C18.6253 11.2033 14.8849 14 10.5862 14V16C15.7962 16 20.2168 12.6144 22.1018 7.86919L20.2431 7.13082ZM10.5862 14C6.28752 14 2.54714 11.2033 0.929357 7.13082L-0.929357 7.86918C0.955643 12.6144 5.37625 16 10.5862 16V14Z" fill="#FF9900" mask="url(#path-1-inside-1)"/>
<circle cx="10.5859" cy="7.5" r="5" stroke="#FF9900"/>
</svg>
