<svg width="18" height="14" viewBox="0 0 18 14" fill="none" xmlns="http://www.w3.org/2000/svg">
<rect y="0.571533" width="18" height="12.8571" rx="2" fill="white"/>
<mask id="mask0" mask-type="alpha" maskUnits="userSpaceOnUse" x="0" y="0" width="18" height="14">
<rect y="0.571533" width="18" height="12.8571" rx="1" fill="white"/>
</mask>
<g mask="url(#mask0)">
<path fill-rule="evenodd" clip-rule="evenodd" d="M0 4.0001H18V0.571533H0V4.0001Z" fill="#DD172C"/>
<path fill-rule="evenodd" clip-rule="evenodd" d="M0 13.4286H18V10H0V13.4286Z" fill="#DD172C"/>
<path fill-rule="evenodd" clip-rule="evenodd" d="M0 10H18V4H0V10Z" fill="#FFD133"/>
<path fill-rule="evenodd" clip-rule="evenodd" d="M4.71484 6.5715H5.57199V7.00007H4.71484V6.5715Z" fill="#FFEDB1"/>
<path d="M4.03493 6.83717C4.01873 6.64283 4.1721 6.47616 4.36711 6.47616H5.0609C5.25592 6.47616 5.40928 6.64283 5.39308 6.83717L5.31015 7.83239C5.28431 8.14243 5.02513 8.38092 4.71401 8.38092C4.40288 8.38092 4.1437 8.14243 4.11786 7.83239L4.03493 6.83717Z" stroke="#A41517" stroke-width="0.666667"/>
<path fill-rule="evenodd" clip-rule="evenodd" d="M3.85742 7H5.57171V7.42857H5.14314L4.71456 8.28571L4.28599 7.42857H3.85742V7Z" fill="#A41517"/>
<rect x="2.57129" y="5.71436" width="0.857143" height="3" rx="0.428571" fill="#A41517"/>
<rect x="6" y="5.71436" width="0.857143" height="3" rx="0.428571" fill="#A41517"/>
<path d="M3.85742 5.54265C3.85742 5.16394 4.16443 4.85693 4.54314 4.85693H4.88599C5.2647 4.85693 5.57171 5.16394 5.57171 5.54265C5.57171 5.63733 5.49496 5.71408 5.40028 5.71408H4.02885C3.93417 5.71408 3.85742 5.63733 3.85742 5.54265Z" fill="#A41517"/>
</g>
</svg>
