<svg width="18" height="13" viewBox="0 0 18 13" fill="none" xmlns="http://www.w3.org/2000/svg">
<mask id="mask0" mask-type="alpha" maskUnits="userSpaceOnUse" x="0" y="0" width="18" height="13">
<rect width="18" height="12.8571" rx="1" fill="white"/>
</mask>
<g mask="url(#mask0)">
<rect width="18" height="12.8571" fill="#0A17A7"/>
<path fill-rule="evenodd" clip-rule="evenodd" d="M4.29114 8.57134L-1.78223 12.6679L-0.82361 14.0891L6.85784 8.90788V13.7142H11.1436V8.9073L18.8259 14.0891L19.7845 12.6679L13.7111 8.57134H18.0007V4.28563H13.7106L19.7839 0.189151L18.8253 -1.23206L11.1436 3.94933V-0.857229H6.85784V3.94875L-0.822963 -1.23202L-1.78158 0.189187L4.29164 4.28563H0.000697374V8.57134H4.29114Z" fill="white"/>
<path d="M12.001 4.07064L20.143 -1.28577" stroke="#DB1F35" stroke-width="0.666667" stroke-linecap="round"/>
<path d="M12.8643 8.80554L20.1632 13.7252" stroke="#DB1F35" stroke-width="0.666667" stroke-linecap="round"/>
<path d="M5.14657 4.05683L-2.4668 -1.0741" stroke="#DB1F35" stroke-width="0.666667" stroke-linecap="round"/>
<path d="M5.97232 8.74609L-2.4668 14.3425" stroke="#DB1F35" stroke-width="0.666667" stroke-linecap="round"/>
<path fill-rule="evenodd" clip-rule="evenodd" d="M0 7.71429H7.71429V12.8571H10.2857V7.71429H18V5.14286H10.2857V0H7.71429V5.14286H0V7.71429Z" fill="#E6273E"/>
</g>
</svg>
