<svg width="67" height="26" viewBox="0 0 67 26" fill="none" xmlns="http://www.w3.org/2000/svg">
<path d="M0 4.00781C0 2.82031 0.296876 1.78125 0.890626 1.03906C1.48438 0.445314 2.22656 0 3.41406 0H13.8047C14.25 0 14.6953 5.64032e-07 15.1406 0.148438C15.5859 0.296876 15.8828 0.445312 16.3281 0.742187C16.9219 1.1875 17.2188 2.07812 17.2188 2.96875C17.2188 4.00781 16.9219 4.75 16.3281 5.34375C15.7344 5.9375 14.9922 6.08594 13.9531 6.08594H6.53125V7.57031C4.89844 7.57031 3.5625 8.01562 2.52344 8.90625C1.48437 9.79687 0.59375 11.2812 0 12.4687V4.00781ZM0 21.5234V15.7344C0 14.9922 0.148438 14.25 0.445313 13.5078C0.742188 12.7656 1.03906 12.1719 1.48438 11.5781C1.92969 10.9844 2.52344 10.5391 3.11719 10.2422C3.71094 9.94531 4.45312 9.64844 5.19531 9.64844C5.34375 9.64844 5.64062 9.64844 5.78906 9.64844C5.9375 9.64844 6.23438 9.64844 6.38281 9.64844H13.0625C14.1016 9.64844 14.8437 9.79687 15.2891 10.2422C15.7344 10.6875 16.1797 11.1328 16.3281 11.7266C16.4766 12.3203 16.4766 12.9141 16.3281 13.5078C16.1797 14.1016 15.8828 14.5469 15.5859 14.8438C14.9922 15.4375 14.25 15.5859 13.0625 15.5859H6.38281V21.375C6.38281 22.1172 6.23438 22.7109 6.08594 23.1562C5.9375 23.6016 5.64063 24.0469 5.34375 24.3437C5.04688 24.6406 4.75 24.9375 4.30469 24.9375C4.00781 25.0859 3.5625 25.0859 3.26562 25.0859C2.07812 25.0859 1.1875 24.6406 0.742188 23.8984C0.296875 23.4531 0 22.5625 0 21.5234Z" fill="#FCFCFC"/>
<path d="M18.4062 21.5234V5.78906C18.4062 4.15625 18.8516 2.82031 19.5938 1.63281C20.3359 0.59375 21.5234 0 23.1563 0C23.8984 0 24.6406 0.148439 25.0859 0.445314C25.6797 0.742189 26.125 1.03906 26.5703 1.63281C27.0156 2.07813 27.3125 2.67188 27.7578 3.41406C28.0547 4.15625 28.3516 4.75 28.6484 5.64063L29.9844 9.64844C30.1328 10.0937 30.2812 10.6875 30.5781 11.1328C30.7266 11.5781 30.875 12.1719 31.0234 12.6172C31.1719 13.0625 31.3203 13.5078 31.4688 13.8047C31.6172 14.1016 31.6172 14.3984 31.7656 14.5469C32.3594 16.3281 32.6562 17.9609 32.8047 19.2969C32.9531 20.7812 32.8047 21.9687 32.5078 23.1562C32.3594 23.6016 32.0625 23.8984 31.7656 24.1953C31.1719 24.4922 30.875 24.6406 30.4297 24.6406C30.1328 24.6406 29.6875 24.4922 29.5391 24.3437C29.2422 24.1953 29.0937 23.8984 28.9453 23.75C28.7969 23.4531 28.6484 23.1562 28.5 22.8594C28.3516 22.5625 28.3516 22.2656 28.2031 21.9687L24.6406 11.2812V21.375C24.6406 22.5625 24.3438 23.6016 23.8984 24.1953C23.4531 24.7891 22.5625 25.2344 21.5234 25.2344C20.4844 25.2344 19.5937 24.9375 19.1484 24.1953C18.7031 23.4531 18.4062 22.7109 18.4062 21.5234ZM32.2109 12.3203L33.5469 8.46094L34.4375 5.64063C34.5859 4.89844 34.8828 4.30469 35.1797 3.5625C35.4766 2.96875 35.7734 2.375 36.2188 1.78125C36.6641 1.33594 37.1094 0.890624 37.7031 0.593749C38.2969 0.296874 39.0391 0.148438 39.7812 0.148438C40.6719 0.148438 41.4141 0.296874 42.0078 0.593749C42.6016 0.890624 43.0469 1.33594 43.4922 1.92969C43.7891 2.52344 44.0859 3.11719 44.2344 3.71094C44.3828 4.45312 44.5312 5.04687 44.5312 5.9375V21.5234C44.5312 22.1172 44.5312 22.5625 44.3828 23.0078C44.2344 23.4531 44.0859 23.8984 43.7891 24.1953C43.4922 24.4922 43.1953 24.7891 42.75 25.0859C42.3047 25.3828 41.8594 25.3828 41.2656 25.3828C40.6719 25.3828 40.2266 25.2344 39.7812 25.0859C39.3359 24.9375 39.0391 24.6406 38.8906 24.1953C38.7422 23.75 38.4453 23.4531 38.2969 23.0078C38.1484 22.5625 38.1484 21.9688 38.1484 21.5234V11.2812L35.1797 20.1875C34.8828 21.0781 34.4375 21.9687 33.9922 22.5625C33.5469 23.1562 33.1016 23.75 32.5078 24.1953C32.8047 23.3047 32.9531 22.2656 33.1016 21.2266C33.25 20.1875 33.25 19.1484 33.1016 18.1094C32.9531 17.0703 32.9531 16.0312 32.6562 15.1406C32.8047 14.1016 32.5078 13.2109 32.2109 12.3203Z" fill="#FCFCFC"/>
<path d="M45.8672 3.11719C45.8672 2.07813 46.1641 1.1875 46.7578 0.742187C47.3516 0.296875 48.0937 0 49.1328 0H62.7891C63.8281 0 64.7187 0.296875 65.1641 0.742187C65.7578 1.1875 66.0547 2.07812 66.0547 2.96875C66.0547 4.00781 65.7578 4.75 65.1641 5.34375C64.5703 5.9375 63.8281 6.08594 62.7891 6.08594H59.6719C58.4844 6.08594 57.5937 6.23437 56.7031 6.53125C55.9609 6.82812 55.2187 7.125 54.625 7.57031C54.0312 8.01562 53.5859 8.46094 53.2891 9.05469C52.9922 9.64844 52.6953 10.2422 52.5469 10.8359V6.23438H48.8359C47.7969 6.23438 46.9062 5.9375 46.4609 5.49219C46.1641 5.04688 45.8672 4.15625 45.8672 3.11719ZM59.0781 7.71875V21.375C59.0781 21.9687 59.0781 22.4141 58.9297 22.8594C58.7812 23.3047 58.6328 23.75 58.3359 24.0469C58.0391 24.3437 57.7422 24.6406 57.4453 24.9375C57 25.0859 56.5547 25.2344 55.9609 25.2344C55.3672 25.2344 54.9219 25.0859 54.4766 24.9375C54.0312 24.7891 53.7344 24.4922 53.4375 24.0469C53.1406 23.75 52.9922 23.3047 52.8437 22.8594C52.6953 22.4141 52.6953 21.8203 52.6953 21.375V13.9531C52.6953 12.0234 53.2891 10.5391 54.3281 9.5C55.6641 8.46094 57.1484 7.86719 59.0781 7.71875Z" fill="#FCFCFC"/>
</svg>
