<svg width="37" height="15" viewBox="0 0 37 15" fill="none" xmlns="http://www.w3.org/2000/svg">
<path fill-rule="evenodd" clip-rule="evenodd" d="M36.9628 8.65105H31.9675C32.0853 9.82027 32.9591 10.1959 33.9508 10.1959C34.9672 10.1959 35.7853 9.97173 36.4608 9.62036V11.6317C35.6035 12.1138 34.6226 12.3451 33.6347 12.2981C31.1494 12.2981 29.4017 10.7835 29.4017 7.76656C29.4017 5.22819 30.8829 3.21082 33.3062 3.21082C35.7357 3.21082 37 5.1979 37 7.75444C37 7.99677 36.9752 8.51777 36.9628 8.65105ZM33.2938 5.24637C32.6554 5.24637 31.9489 5.68861 31.9489 6.80937H34.5829C34.5829 5.68861 33.9198 5.24637 33.2938 5.24637ZM25.3794 12.2981C24.4869 12.2981 23.9415 11.9346 23.5821 11.668L23.5697 14.4729L21.0162 15V3.37439H23.3466L23.3961 3.99233C23.9366 3.49119 24.653 3.21152 25.398 3.21082C27.1953 3.21082 28.8811 4.78594 28.8811 7.69386C28.8811 10.8623 27.2077 12.2981 25.3794 12.2981ZM24.7906 5.42205C24.2018 5.42205 23.8362 5.62803 23.5697 5.91276L23.5821 9.62036C23.83 9.88691 24.1894 10.0929 24.7906 10.0929C25.7327 10.0929 26.3648 9.0933 26.3648 7.74838C26.3648 6.44588 25.7203 5.42205 24.7906 5.42205ZM17.5022 3.37439H20.0618V12.1224H17.5022V3.37439ZM17.5022 0.52706L20.0618 0V2.03554L17.5022 2.56866V0.533118V0.52706ZM14.8248 6.19144V12.1224H12.2714V3.37439H14.5645L14.6389 4.11349C15.2586 3.0412 16.5415 3.25929 16.8824 3.37439V5.67044C16.5601 5.56745 15.4631 5.40994 14.8248 6.19144ZM9.52579 9.05089C9.52579 10.523 11.1372 10.0687 11.4595 9.93538V11.9709C11.1186 12.1527 10.505 12.2981 9.66834 12.2981C9.31963 12.308 8.97248 12.2485 8.64804 12.1232C8.32359 11.9978 8.02862 11.8093 7.78107 11.569C7.53351 11.3287 7.33856 11.0417 7.20805 10.7255C7.07755 10.4092 7.01423 10.0703 7.02194 9.7294L7.02814 1.75081L9.5196 1.22981V3.37439H11.4657V5.51292H9.52579V9.05695V9.05089ZM6.48275 9.47496C6.48275 11.2742 5.05109 12.2981 2.93149 12.2981C1.98035 12.2974 1.0395 12.1056 0.167337 11.7347V9.3538C1.02261 9.80816 2.08861 10.1474 2.93149 10.1474C3.50167 10.1474 3.87973 10.002 3.87973 9.5416C3.87973 8.34208 0 8.79039 0 6.02787C0 4.26494 1.41307 3.21082 3.48308 3.21082C4.32596 3.21082 5.16884 3.33199 6.01792 3.66519V6.01575C5.23327 5.61209 4.36336 5.39225 3.47688 5.37359C2.94389 5.37359 2.58442 5.52504 2.58442 5.91882C2.58442 7.03958 6.48275 6.50646 6.48275 9.48102V9.47496Z" fill="white"/>
</svg>
