<svg width="36" height="36" viewBox="0 0 36 36" fill="none" xmlns="http://www.w3.org/2000/svg">
<circle cx="18.1268" cy="9.05191" r="8.30747" fill="#FFDAB9" stroke="#FF9900"/>
<mask id="path-2-inside-1" fill="white">
<path fill-rule="evenodd" clip-rule="evenodd" d="M35.2105 30.0664C31.1112 33.6464 25.7091 35.7579 19.8395 35.6078L15.2989 35.4916C9.85802 35.3524 4.91773 33.2928 1.11002 29.9781C3.13724 22.25 10.2663 16.6408 18.599 16.854C26.6493 17.06 33.2997 22.6358 35.2105 30.0664Z"/>
</mask>
<path fill-rule="evenodd" clip-rule="evenodd" d="M35.2105 30.0664C31.1112 33.6464 25.7091 35.7579 19.8395 35.6078L15.2989 35.4916C9.85802 35.3524 4.91773 33.2928 1.11002 29.9781C3.13724 22.25 10.2663 16.6408 18.599 16.854C26.6493 17.06 33.2997 22.6358 35.2105 30.0664Z" fill="#FFDAB9"/>
<path d="M35.2105 30.0664L35.8683 30.8196L36.3325 30.4142L36.179 29.8174L35.2105 30.0664ZM1.11002 29.9781L0.142748 29.7243L-0.0147512 30.3247L0.453423 30.7323L1.11002 29.9781ZM34.5528 29.3132C30.6348 32.7347 25.4744 34.7516 19.865 34.6081L19.8139 36.6074C25.9438 36.7643 31.5875 34.558 35.8683 30.8196L34.5528 29.3132ZM19.865 34.6081L15.3245 34.4919L15.2734 36.4913L19.8139 36.6074L19.865 34.6081ZM15.3245 34.4919C10.1245 34.3589 5.40541 32.3915 1.76662 29.2238L0.453423 30.7323C4.43005 34.1941 9.5915 36.3459 15.2734 36.4913L15.3245 34.4919ZM2.0773 30.2318C3.98941 22.9425 10.715 17.6526 18.5735 17.8537L18.6246 15.8543C9.8175 15.629 2.28506 21.5575 0.142748 29.7243L2.0773 30.2318ZM18.5735 17.8537C26.1653 18.0479 32.4396 23.3061 34.2421 30.3155L36.179 29.8174C34.1599 21.9654 27.1334 16.072 18.6246 15.8543L18.5735 17.8537Z" fill="#FF9900" mask="url(#path-2-inside-1)"/>
</svg>
